<svg
  width="90"
  height="85"
  viewBox="0 0 90 85"
  fill="none"
  xmlns="http://www.w3.org/2000/svg"
>
  <path
    d="M33.388 17.2254C35.1067 15.0708 36.8573 13.1735 38.564 11.5935C36.048 11.2095 33.3867 10.9868 30.56 10.9868C28.8213 12.9748 27.1573 15.1361 25.6133 17.3935C23.4215 20.5961 21.4695 23.9841 19.8855 27.3201C18.4135 30.4135 17.6695 33.4975 17.6695 36.4815C17.6695 46.9988 26.4668 54.5761 40.2228 56.6761C41.9321 55.0935 43.6828 53.1961 45.4015 51.0415C32.3855 50.3268 23.8308 44.6601 23.8308 36.4815C23.8308 34.4188 24.3748 32.2241 25.4508 29.9601C27.7441 25.1295 30.5188 20.8228 33.3881 17.2255L33.388 17.2254ZM76.5729 27.32C70.2796 14.0747 58.2116 0 48.2289 0C42.5303 0 36.1543 4.588 30.5596 10.9867C33.3863 10.9867 36.0476 11.2093 38.5649 11.5933C42.2863 8.14533 45.7903 6.15866 48.2289 6.15866C53.6556 6.15866 64.3449 15.9347 71.0076 29.96C72.0823 32.224 72.6263 34.4187 72.6263 36.4813C72.6263 44.2067 64.9916 49.6867 53.1769 50.8733C51.6329 53.1307 49.9676 55.292 48.2289 57.2827C66.5049 57.2827 78.7863 48.9227 78.7863 36.4813C78.7863 33.4973 78.0409 30.4133 76.5729 27.32Z"
    fill="#90C84B"
  >
    <animateTransform
      attributeName="transform"
      type="scale"
      values="1;1.08;1"
      fill="freeze"
      calcMode="spline"
      keySplines="0.4 0 0.2 1; 0.4 0 0.2 1"
      dur="2000ms"
      repeatCount="indefinite"
    />
  </path>

  <path
    d="M39.3933 28.1481C36.4747 28.1481 34.0987 30.5228 34.0987 33.4428C34.0987 36.3615 36.4747 38.7361 39.3933 38.7361C42.312 38.7361 44.688 36.3615 44.688 33.4428C44.688 30.5228 42.312 28.1481 39.3933 28.1481ZM39.3933 40.7361C35.3707 40.7361 32.0987 37.4641 32.0987 33.4428C32.0987 29.4201 35.3707 26.1481 39.3933 26.1481C43.416 26.1481 46.688 29.4201 46.688 33.4428C46.688 37.4641 43.416 40.7361 39.3933 40.7361Z"
    fill="black"
  >
    <animateTransform
      attributeName="transform"
      type="scale"
      values="1;1.08;1"
      begin="300ms"
      dur="2000ms"
      fill="freeze"
      calcMode="spline"
      keySplines="0.4 0 0.2 1; 0.4 0 0.2 1"
      repeatCount="indefinite"
    />
  </path>
  <path
    d="M45.4012 51.0408C43.6825 53.1968 41.9319 55.0928 40.2239 56.6755C42.7399 57.0595 45.4012 57.2821 48.2292 57.2821C49.9678 55.2928 51.6331 53.1316 53.1771 50.873C55.3681 47.6716 57.3201 44.2849 58.9041 40.9503C60.3721 37.8543 61.1175 34.7729 61.1175 31.7863C61.1175 21.2689 52.3215 13.6929 38.5641 11.5929C36.8575 13.1743 35.1068 15.0716 33.3881 17.2249C46.4041 17.9396 54.9575 23.6076 54.9575 31.7863C54.9575 33.8489 54.4121 36.0436 53.3388 38.3076C51.0455 43.1369 48.2718 47.4448 45.4012 51.0408ZM30.56 62.1103C25.1333 62.1103 14.4427 52.3343 7.77867 38.3063C6.70533 36.0436 6.16133 33.8489 6.16133 31.7863C6.16133 24.0609 13.7973 18.5796 25.6133 17.3929C27.1573 15.1369 28.8213 12.9743 30.56 10.9863C12.2813 10.9863 0 19.3463 0 31.7863C0 34.7729 0.748 37.8543 2.216 40.9503C8.50667 54.1929 20.5787 68.2689 30.56 68.2689C36.2573 68.2689 42.6333 63.6809 48.228 57.2823C45.4013 57.2823 42.7399 57.0595 40.2239 56.6755C36.5025 60.1235 32.9987 62.1103 30.56 62.1103Z"
    fill="#367AA6"
  >
    <animateTransform
      attributeName="transform"
      type="scale"
      values="1;1.08;1"
      fill="freeze"
      calcMode="spline"
      keySplines="0.4 0 0.2 1; 0.4 0 0.2 1"
      begin="600ms"
      dur="2000ms"
      repeatCount="indefinite"
    />
  </path>
</svg>

