
<svg version="1.1" xmlns="http://www.w3.org/2000/svg" width="600" height="120" viewBox="0 0 600 120">
  <defs>
    <filter id="blurMe">
     <feGaussianBlur stdDeviation="1"/>
    </filter>
    
  </defs>
  <circle r="30px" x="0px" y="0px" width="30px" height="30" fill="startColor" filter="url(#blurMe)"></rect>
<circle r="30px" x="0px" y="29px" width="30px" height="30" fill="startColor" filter="url(#blurMe)"></rect>
<circle r="30px" x="0px" y="58px" width="30px" height="30" fill="startColor" filter="url(#blurMe)"></rect>
<circle r="30px" x="0px" y="87px" width="30px" height="30" fill="startColor" filter="url(#blurMe)"></rect>
<circle r="30px" x="29px" y="0px" width="30px" height="30" fill="startColor" filter="url(#blurMe)"></rect>
<circle r="30px" x="29px" y="29px" width="30px" height="30" fill="startColor" filter="url(#blurMe)"></rect>
<circle r="30px" x="29px" y="58px" width="30px" height="30" fill="startColor" filter="url(#blurMe)"></rect>
<circle r="30px" x="29px" y="87px" width="30px" height="30" fill="startColor" filter="url(#blurMe)"></rect>
<circle r="30px" x="58px" y="0px" width="30px" height="30" fill="startColor" filter="url(#blurMe)"></rect>
<circle r="30px" x="58px" y="29px" width="30px" height="30" fill="startColor" filter="url(#blurMe)"></rect>
<circle r="30px" x="58px" y="58px" width="30px" height="30" fill="startColor" filter="url(#blurMe)"></rect>
<circle r="30px" x="58px" y="87px" width="30px" height="30" fill="startColor" filter="url(#blurMe)"></rect>
<circle r="30px" x="87px" y="0px" width="30px" height="30" fill="startColor" filter="url(#blurMe)"></rect>
<circle r="30px" x="87px" y="29px" width="30px" height="30" fill="startColor" filter="url(#blurMe)"></rect>
<circle r="30px" x="87px" y="58px" width="30px" height="30" fill="startColor" filter="url(#blurMe)"></rect>
<circle r="30px" x="87px" y="87px" width="30px" height="30" fill="startColor" filter="url(#blurMe)"></rect>
<circle r="30px" x="116px" y="0px" width="30px" height="30" fill="startColor" filter="url(#blurMe)"></rect>
<circle r="30px" x="116px" y="29px" width="30px" height="30" fill="startColor" filter="url(#blurMe)"></rect>
<circle r="30px" x="116px" y="58px" width="30px" height="30" fill="startColor" filter="url(#blurMe)"></rect>
<circle r="30px" x="116px" y="87px" width="30px" height="30" fill="startColor" filter="url(#blurMe)"></rect>
<circle r="30px" x="145px" y="0px" width="30px" height="30" fill="startColor" filter="url(#blurMe)"></rect>
<circle r="30px" x="145px" y="29px" width="30px" height="30" fill="startColor" filter="url(#blurMe)"></rect>
<circle r="30px" x="145px" y="58px" width="30px" height="30" fill="startColor" filter="url(#blurMe)"></rect>
<circle r="30px" x="145px" y="87px" width="30px" height="30" fill="startColor" filter="url(#blurMe)"></rect>
<circle r="30px" x="174px" y="0px" width="30px" height="30" fill="startColor" filter="url(#blurMe)"></rect>
<circle r="30px" x="174px" y="29px" width="30px" height="30" fill="startColor" filter="url(#blurMe)"></rect>
<circle r="30px" x="174px" y="58px" width="30px" height="30" fill="startColor" filter="url(#blurMe)"></rect>
<circle r="30px" x="174px" y="87px" width="30px" height="30" fill="startColor" filter="url(#blurMe)"></rect>
<circle r="30px" x="203px" y="0px" width="30px" height="30" fill="startColor" filter="url(#blurMe)"></rect>
<circle r="30px" x="203px" y="29px" width="30px" height="30" fill="startColor" filter="url(#blurMe)"></rect>
<circle r="30px" x="203px" y="58px" width="30px" height="30" fill="startColor" filter="url(#blurMe)"></rect>
<circle r="30px" x="203px" y="87px" width="30px" height="30" fill="startColor" filter="url(#blurMe)"></rect>
<circle r="30px" x="232px" y="0px" width="30px" height="30" fill="startColor" filter="url(#blurMe)"></rect>
<circle r="30px" x="232px" y="29px" width="30px" height="30" fill="startColor" filter="url(#blurMe)"></rect>
<circle r="30px" x="232px" y="58px" width="30px" height="30" fill="startColor" filter="url(#blurMe)"></rect>
<circle r="30px" x="232px" y="87px" width="30px" height="30" fill="startColor" filter="url(#blurMe)"></rect>
<circle r="30px" x="261px" y="0px" width="30px" height="30" fill="startColor" filter="url(#blurMe)"></rect>
<circle r="30px" x="261px" y="29px" width="30px" height="30" fill="startColor" filter="url(#blurMe)"></rect>
<circle r="30px" x="261px" y="58px" width="30px" height="30" fill="startColor" filter="url(#blurMe)"></rect>
<circle r="30px" x="261px" y="87px" width="30px" height="30" fill="startColor" filter="url(#blurMe)"></rect>
<circle r="30px" x="290px" y="0px" width="30px" height="30" fill="startColor" filter="url(#blurMe)"></rect>
<circle r="30px" x="290px" y="29px" width="30px" height="30" fill="startColor" filter="url(#blurMe)"></rect>
<circle r="30px" x="290px" y="58px" width="30px" height="30" fill="startColor" filter="url(#blurMe)"></rect>
<circle r="30px" x="290px" y="87px" width="30px" height="30" fill="startColor" filter="url(#blurMe)"></rect>
<circle r="30px" x="319px" y="0px" width="30px" height="30" fill="startColor" filter="url(#blurMe)"></rect>
<circle r="30px" x="319px" y="29px" width="30px" height="30" fill="startColor" filter="url(#blurMe)"></rect>
<circle r="30px" x="319px" y="58px" width="30px" height="30" fill="startColor" filter="url(#blurMe)"></rect>
<circle r="30px" x="319px" y="87px" width="30px" height="30" fill="startColor" filter="url(#blurMe)"></rect>
<circle r="30px" x="348px" y="0px" width="30px" height="30" fill="startColor" filter="url(#blurMe)"></rect>
<circle r="30px" x="348px" y="29px" width="30px" height="30" fill="startColor" filter="url(#blurMe)"></rect>
<circle r="30px" x="348px" y="58px" width="30px" height="30" fill="startColor" filter="url(#blurMe)"></rect>
<circle r="30px" x="348px" y="87px" width="30px" height="30" fill="startColor" filter="url(#blurMe)"></rect>
<circle r="30px" x="377px" y="0px" width="30px" height="30" fill="startColor" filter="url(#blurMe)"></rect>
<circle r="30px" x="377px" y="29px" width="30px" height="30" fill="startColor" filter="url(#blurMe)"></rect>
<circle r="30px" x="377px" y="58px" width="30px" height="30" fill="startColor" filter="url(#blurMe)"></rect>
<circle r="30px" x="377px" y="87px" width="30px" height="30" fill="startColor" filter="url(#blurMe)"></rect>
<circle r="30px" x="406px" y="0px" width="30px" height="30" fill="startColor" filter="url(#blurMe)"></rect>
<circle r="30px" x="406px" y="29px" width="30px" height="30" fill="startColor" filter="url(#blurMe)"></rect>
<circle r="30px" x="406px" y="58px" width="30px" height="30" fill="startColor" filter="url(#blurMe)"></rect>
<circle r="30px" x="406px" y="87px" width="30px" height="30" fill="startColor" filter="url(#blurMe)"></rect>
<circle r="30px" x="435px" y="0px" width="30px" height="30" fill="startColor" filter="url(#blurMe)"></rect>
<circle r="30px" x="435px" y="29px" width="30px" height="30" fill="startColor" filter="url(#blurMe)"></rect>
<circle r="30px" x="435px" y="58px" width="30px" height="30" fill="startColor" filter="url(#blurMe)"></rect>
<circle r="30px" x="435px" y="87px" width="30px" height="30" fill="startColor" filter="url(#blurMe)"></rect>
<circle r="30px" x="464px" y="0px" width="30px" height="30" fill="startColor" filter="url(#blurMe)"></rect>
<circle r="30px" x="464px" y="29px" width="30px" height="30" fill="startColor" filter="url(#blurMe)"></rect>
<circle r="30px" x="464px" y="58px" width="30px" height="30" fill="startColor" filter="url(#blurMe)"></rect>
<circle r="30px" x="464px" y="87px" width="30px" height="30" fill="startColor" filter="url(#blurMe)"></rect>
<circle r="30px" x="493px" y="0px" width="30px" height="30" fill="startColor" filter="url(#blurMe)"></rect>
<circle r="30px" x="493px" y="29px" width="30px" height="30" fill="startColor" filter="url(#blurMe)"></rect>
<circle r="30px" x="493px" y="58px" width="30px" height="30" fill="startColor" filter="url(#blurMe)"></rect>
<circle r="30px" x="493px" y="87px" width="30px" height="30" fill="startColor" filter="url(#blurMe)"></rect>
<circle r="30px" x="522px" y="0px" width="30px" height="30" fill="startColor" filter="url(#blurMe)"></rect>
<circle r="30px" x="522px" y="29px" width="30px" height="30" fill="startColor" filter="url(#blurMe)"></rect>
<circle r="30px" x="522px" y="58px" width="30px" height="30" fill="startColor" filter="url(#blurMe)"></rect>
<circle r="30px" x="522px" y="87px" width="30px" height="30" fill="startColor" filter="url(#blurMe)"></rect>
<circle r="30px" x="551px" y="0px" width="30px" height="30" fill="startColor" filter="url(#blurMe)"></rect>
<circle r="30px" x="551px" y="29px" width="30px" height="30" fill="startColor" filter="url(#blurMe)"></rect>
<circle r="30px" x="551px" y="58px" width="30px" height="30" fill="startColor" filter="url(#blurMe)"></rect>
<circle r="30px" x="551px" y="87px" width="30px" height="30" fill="startColor" filter="url(#blurMe)"></rect>
</svg>
