
<svg version="1.1" xmlns="http://www.w3.org/2000/svg" width="600" height="120" viewBox="0 0 600 120">
  <defs>
    <filter id="blurMe">
     <feGaussianBlur stdDeviation="1"/>
    </filter>
    
  </defs>
  <rect x="0px" y="0px" width="30px" height="30" fill="url(#0-0)" filter="url(#blurMe)"></rect>
<rect x="0px" y="29px" width="30px" height="30" fill="url(#0-29)" filter="url(#blurMe)"></rect>
<rect x="0px" y="58px" width="30px" height="30" fill="url(#0-58)" filter="url(#blurMe)"></rect>
<rect x="0px" y="87px" width="30px" height="30" fill="url(#0-87)" filter="url(#blurMe)"></rect>
<rect x="29px" y="0px" width="30px" height="30" fill="url(#29-0)" filter="url(#blurMe)"></rect>
<rect x="29px" y="29px" width="30px" height="30" fill="url(#29-29)" filter="url(#blurMe)"></rect>
<rect x="29px" y="58px" width="30px" height="30" fill="url(#29-58)" filter="url(#blurMe)"></rect>
<rect x="29px" y="87px" width="30px" height="30" fill="url(#29-87)" filter="url(#blurMe)"></rect>
<rect x="58px" y="0px" width="30px" height="30" fill="url(#58-0)" filter="url(#blurMe)"></rect>
<rect x="58px" y="29px" width="30px" height="30" fill="url(#58-29)" filter="url(#blurMe)"></rect>
<rect x="58px" y="58px" width="30px" height="30" fill="url(#58-58)" filter="url(#blurMe)"></rect>
<rect x="58px" y="87px" width="30px" height="30" fill="url(#58-87)" filter="url(#blurMe)"></rect>
<rect x="87px" y="0px" width="30px" height="30" fill="url(#87-0)" filter="url(#blurMe)"></rect>
<rect x="87px" y="29px" width="30px" height="30" fill="url(#87-29)" filter="url(#blurMe)"></rect>
<rect x="87px" y="58px" width="30px" height="30" fill="url(#87-58)" filter="url(#blurMe)"></rect>
<rect x="87px" y="87px" width="30px" height="30" fill="url(#87-87)" filter="url(#blurMe)"></rect>
<rect x="116px" y="0px" width="30px" height="30" fill="url(#116-0)" filter="url(#blurMe)"></rect>
<rect x="116px" y="29px" width="30px" height="30" fill="url(#116-29)" filter="url(#blurMe)"></rect>
<rect x="116px" y="58px" width="30px" height="30" fill="url(#116-58)" filter="url(#blurMe)"></rect>
<rect x="116px" y="87px" width="30px" height="30" fill="url(#116-87)" filter="url(#blurMe)"></rect>
<rect x="145px" y="0px" width="30px" height="30" fill="url(#145-0)" filter="url(#blurMe)"></rect>
<rect x="145px" y="29px" width="30px" height="30" fill="url(#145-29)" filter="url(#blurMe)"></rect>
<rect x="145px" y="58px" width="30px" height="30" fill="url(#145-58)" filter="url(#blurMe)"></rect>
<rect x="145px" y="87px" width="30px" height="30" fill="url(#145-87)" filter="url(#blurMe)"></rect>
<rect x="174px" y="0px" width="30px" height="30" fill="url(#174-0)" filter="url(#blurMe)"></rect>
<rect x="174px" y="29px" width="30px" height="30" fill="url(#174-29)" filter="url(#blurMe)"></rect>
<rect x="174px" y="58px" width="30px" height="30" fill="url(#174-58)" filter="url(#blurMe)"></rect>
<rect x="174px" y="87px" width="30px" height="30" fill="url(#174-87)" filter="url(#blurMe)"></rect>
<rect x="203px" y="0px" width="30px" height="30" fill="url(#203-0)" filter="url(#blurMe)"></rect>
<rect x="203px" y="29px" width="30px" height="30" fill="url(#203-29)" filter="url(#blurMe)"></rect>
<rect x="203px" y="58px" width="30px" height="30" fill="url(#203-58)" filter="url(#blurMe)"></rect>
<rect x="203px" y="87px" width="30px" height="30" fill="url(#203-87)" filter="url(#blurMe)"></rect>
<rect x="232px" y="0px" width="30px" height="30" fill="url(#232-0)" filter="url(#blurMe)"></rect>
<rect x="232px" y="29px" width="30px" height="30" fill="url(#232-29)" filter="url(#blurMe)"></rect>
<rect x="232px" y="58px" width="30px" height="30" fill="url(#232-58)" filter="url(#blurMe)"></rect>
<rect x="232px" y="87px" width="30px" height="30" fill="url(#232-87)" filter="url(#blurMe)"></rect>
<rect x="261px" y="0px" width="30px" height="30" fill="url(#261-0)" filter="url(#blurMe)"></rect>
<rect x="261px" y="29px" width="30px" height="30" fill="url(#261-29)" filter="url(#blurMe)"></rect>
<rect x="261px" y="58px" width="30px" height="30" fill="url(#261-58)" filter="url(#blurMe)"></rect>
<rect x="261px" y="87px" width="30px" height="30" fill="url(#261-87)" filter="url(#blurMe)"></rect>
<rect x="290px" y="0px" width="30px" height="30" fill="url(#290-0)" filter="url(#blurMe)"></rect>
<rect x="290px" y="29px" width="30px" height="30" fill="url(#290-29)" filter="url(#blurMe)"></rect>
<rect x="290px" y="58px" width="30px" height="30" fill="url(#290-58)" filter="url(#blurMe)"></rect>
<rect x="290px" y="87px" width="30px" height="30" fill="url(#290-87)" filter="url(#blurMe)"></rect>
<rect x="319px" y="0px" width="30px" height="30" fill="url(#319-0)" filter="url(#blurMe)"></rect>
<rect x="319px" y="29px" width="30px" height="30" fill="url(#319-29)" filter="url(#blurMe)"></rect>
<rect x="319px" y="58px" width="30px" height="30" fill="url(#319-58)" filter="url(#blurMe)"></rect>
<rect x="319px" y="87px" width="30px" height="30" fill="url(#319-87)" filter="url(#blurMe)"></rect>
<rect x="348px" y="0px" width="30px" height="30" fill="url(#348-0)" filter="url(#blurMe)"></rect>
<rect x="348px" y="29px" width="30px" height="30" fill="url(#348-29)" filter="url(#blurMe)"></rect>
<rect x="348px" y="58px" width="30px" height="30" fill="url(#348-58)" filter="url(#blurMe)"></rect>
<rect x="348px" y="87px" width="30px" height="30" fill="url(#348-87)" filter="url(#blurMe)"></rect>
<rect x="377px" y="0px" width="30px" height="30" fill="url(#377-0)" filter="url(#blurMe)"></rect>
<rect x="377px" y="29px" width="30px" height="30" fill="url(#377-29)" filter="url(#blurMe)"></rect>
<rect x="377px" y="58px" width="30px" height="30" fill="url(#377-58)" filter="url(#blurMe)"></rect>
<rect x="377px" y="87px" width="30px" height="30" fill="url(#377-87)" filter="url(#blurMe)"></rect>
<rect x="406px" y="0px" width="30px" height="30" fill="url(#406-0)" filter="url(#blurMe)"></rect>
<rect x="406px" y="29px" width="30px" height="30" fill="url(#406-29)" filter="url(#blurMe)"></rect>
<rect x="406px" y="58px" width="30px" height="30" fill="url(#406-58)" filter="url(#blurMe)"></rect>
<rect x="406px" y="87px" width="30px" height="30" fill="url(#406-87)" filter="url(#blurMe)"></rect>
<rect x="435px" y="0px" width="30px" height="30" fill="url(#435-0)" filter="url(#blurMe)"></rect>
<rect x="435px" y="29px" width="30px" height="30" fill="url(#435-29)" filter="url(#blurMe)"></rect>
<rect x="435px" y="58px" width="30px" height="30" fill="url(#435-58)" filter="url(#blurMe)"></rect>
<rect x="435px" y="87px" width="30px" height="30" fill="url(#435-87)" filter="url(#blurMe)"></rect>
<rect x="464px" y="0px" width="30px" height="30" fill="url(#464-0)" filter="url(#blurMe)"></rect>
<rect x="464px" y="29px" width="30px" height="30" fill="url(#464-29)" filter="url(#blurMe)"></rect>
<rect x="464px" y="58px" width="30px" height="30" fill="url(#464-58)" filter="url(#blurMe)"></rect>
<rect x="464px" y="87px" width="30px" height="30" fill="url(#464-87)" filter="url(#blurMe)"></rect>
<rect x="493px" y="0px" width="30px" height="30" fill="url(#493-0)" filter="url(#blurMe)"></rect>
<rect x="493px" y="29px" width="30px" height="30" fill="url(#493-29)" filter="url(#blurMe)"></rect>
<rect x="493px" y="58px" width="30px" height="30" fill="url(#493-58)" filter="url(#blurMe)"></rect>
<rect x="493px" y="87px" width="30px" height="30" fill="url(#493-87)" filter="url(#blurMe)"></rect>
<rect x="522px" y="0px" width="30px" height="30" fill="url(#522-0)" filter="url(#blurMe)"></rect>
<rect x="522px" y="29px" width="30px" height="30" fill="url(#522-29)" filter="url(#blurMe)"></rect>
<rect x="522px" y="58px" width="30px" height="30" fill="url(#522-58)" filter="url(#blurMe)"></rect>
<rect x="522px" y="87px" width="30px" height="30" fill="url(#522-87)" filter="url(#blurMe)"></rect>
<rect x="551px" y="0px" width="30px" height="30" fill="url(#551-0)" filter="url(#blurMe)"></rect>
<rect x="551px" y="29px" width="30px" height="30" fill="url(#551-29)" filter="url(#blurMe)"></rect>
<rect x="551px" y="58px" width="30px" height="30" fill="url(#551-58)" filter="url(#blurMe)"></rect>
<rect x="551px" y="87px" width="30px" height="30" fill="url(#551-87)" filter="url(#blurMe)"></rect>
</svg>
